<svg xmlns="http://www.w3.org/2000/svg" style="display: none;">
  <symbol id="icon-dashboard" viewBox="0 0 24 24" fill="none" stroke="currentColor" stroke-width="1.75" stroke-linecap="round" stroke-linejoin="round">
    <rect x="3" y="3" width="7" height="9"></rect>
    <rect x="14" y="3" width="7" height="5"></rect>
    <rect x="14" y="12" width="7" height="9"></rect>
    <rect x="3" y="16" width="7" height="5"></rect>
  </symbol>
  <symbol id="icon-news" viewBox="0 0 24 24" fill="none" stroke="currentColor" stroke-width="1.75" stroke-linecap="round" stroke-linejoin="round">
    <path d="M4 22h14a2 2 0 0 0 2-2V7.5L14.5 2H6a2 2 0 0 0-2 2v4"></path>
    <polyline points="14 2 14 8 20 8"></polyline>
    <path d="M2 15h10"></path>
    <path d="M2 19h10"></path>
  </symbol>
  <symbol id="icon-image" viewBox="0 0 24 24" fill="none" stroke="currentColor" stroke-width="1.75" stroke-linecap="round" stroke-linejoin="round">
    <rect x="3" y="3" width="18" height="18" rx="2" ry="2"></rect>
    <circle cx="8.5" cy="8.5" r="1.5"></circle>
    <polyline points="21 15 16 10 5 21"></polyline>
  </symbol>
  <symbol id="icon-publish" viewBox="0 0 24 24" fill="none" stroke="currentColor" stroke-width="1.75" stroke-linecap="round" stroke-linejoin="round">
    <path d="M22 2L11 13"></path>
    <path d="M22 2l-7 20-4-9-9-4 20-7z"></path>
  </symbol>
  <symbol id="icon-history" viewBox="0 0 24 24" fill="none" stroke="currentColor" stroke-width="1.75" stroke-linecap="round" stroke-linejoin="round">
    <path d="M3 12a9 9 0 1 0 9-9 9.75 9.75 0 0 0-6.74 2.74L3 8"></path>
    <path d="M3 3v5h5"></path>
    <path d="M12 7v5l4 2"></path>
  </symbol>
  <symbol id="icon-system" viewBox="0 0 24 24" fill="none" stroke="currentColor" stroke-width="1.75" stroke-linecap="round" stroke-linejoin="round">
    <circle cx="12" cy="12" r="3"></circle>
    <path d="M19.4 15a1.65 1.65 0 0 0 .33 1.82l.06.06a2 2 0 0 1 0 2.83 2 2 0 0 1-2.83 0l-.06-.06a1.65 1.65 0 0 0-1.82-.33 1.65 1.65 0 0 0-1 1.51V21a2 2 0 0 1-2 2 2 2 0 0 1-2-2v-.09A1.65 1.65 0 0 0 9 19.4a1.65 1.65 0 0 0-1.82.33l-.06.06a2 2 0 0 1-2.83 0 2 2 0 0 1 0-2.83l.06-.06a1.65 1.65 0 0 0 .33-1.82 1.65 1.65 0 0 0-1.51-1H3a2 2 0 0 1-2-2 2 2 0 0 1 2-2h.09A1.65 1.65 0 0 0 4.6 9a1.65 1.65 0 0 0-.33-1.82l-.06-.06a2 2 0 0 1 0-2.83 2 2 0 0 1 2.83 0l.06.06a1.65 1.65 0 0 0 1.82.33H9a1.65 1.65 0 0 0 1-1.51V3a2 2 0 0 1 2-2 2 2 0 0 1 2 2v.09a1.65 1.65 0 0 0 1 1.51 1.65 1.65 0 0 0 1.82-.33l.06-.06a2 2 0 0 1 2.83 0 2 2 0 0 1 0 2.83l-.06.06a1.65 1.65 0 0 0-.33 1.82V9a1.65 1.65 0 0 0 1.51 1H21a2 2 0 0 1 2 2 2 2 0 0 1-2 2h-.09a1.65 1.65 0 0 0-1.51 1z"></path>
  </symbol>
  <symbol id="icon-refresh" viewBox="0 0 24 24" fill="none" stroke="currentColor" stroke-width="1.75" stroke-linecap="round" stroke-linejoin="round">
    <polyline points="23 4 23 10 17 10"></polyline>
    <polyline points="1 20 1 14 7 14"></polyline>
    <path d="M3.51 9a9 9 0 0 1 14.85-3.36L23 10M1 14l4.64 4.36A9 9 0 0 0 20.49 15"></path>
  </symbol>
  <symbol id="icon-upload" viewBox="0 0 24 24" fill="none" stroke="currentColor" stroke-width="1.75" stroke-linecap="round" stroke-linejoin="round">
    <path d="M21 15v4a2 2 0 0 1-2 2H5a2 2 0 0 1-2-2v-4"></path>
    <polyline points="17 8 12 3 7 8"></polyline>
    <line x1="12" y1="3" x2="12" y2="15"></line>
  </symbol>
  <symbol id="icon-save" viewBox="0 0 24 24" fill="none" stroke="currentColor" stroke-width="1.75" stroke-linecap="round" stroke-linejoin="round">
    <path d="M19 21H5a2 2 0 0 1-2-2V5a2 2 0 0 1 2-2h11l5 5v11a2 2 0 0 1-2 2z"></path>
    <polyline points="17 21 17 13 7 13 7 21"></polyline>
    <polyline points="7 3 7 8 15 8"></polyline>
  </symbol>
  <symbol id="icon-edit" viewBox="0 0 24 24" fill="none" stroke="currentColor" stroke-width="1.75" stroke-linecap="round" stroke-linejoin="round">
    <path d="M11 4H4a2 2 0 0 0-2 2v14a2 2 0 0 0 2 2h14a2 2 0 0 0 2-2v-7"></path>
    <path d="M18.5 2.5a2.121 2.121 0 0 1 3 3L12 15l-4 1 1-4 9.5-9.5z"></path>
  </symbol>
  <symbol id="icon-delete" viewBox="0 0 24 24" fill="none" stroke="currentColor" stroke-width="1.75" stroke-linecap="round" stroke-linejoin="round">
    <polyline points="3 6 5 6 21 6"></polyline>
    <path d="M19 6v14a2 2 0 0 1-2 2H7a2 2 0 0 1-2-2V6m3 0V4a2 2 0 0 1 2-2h4a2 2 0 0 1 2 2v2"></path>
    <line x1="10" y1="11" x2="10" y2="17"></line>
    <line x1="14" y1="11" x2="14" y2="17"></line>
  </symbol>
  <symbol id="icon-back" viewBox="0 0 24 24" fill="none" stroke="currentColor" stroke-width="1.75" stroke-linecap="round" stroke-linejoin="round">
    <line x1="19" y1="12" x2="5" y2="12"></line>
    <polyline points="12 19 5 12 12 5"></polyline>
  </symbol>
  <symbol id="icon-close" viewBox="0 0 24 24" fill="none" stroke="currentColor" stroke-width="1.75" stroke-linecap="round" stroke-linejoin="round">
    <line x1="18" y1="6" x2="6" y2="18"></line>
    <line x1="6" y1="6" x2="18" y2="18"></line>
  </symbol>
  <symbol id="icon-search" viewBox="0 0 24 24" fill="none" stroke="currentColor" stroke-width="1.75" stroke-linecap="round" stroke-linejoin="round">
    <circle cx="11" cy="11" r="8"></circle>
    <line x1="21" y1="21" x2="16.65" y2="16.65"></line>
  </symbol>
  <symbol id="icon-filter" viewBox="0 0 24 24" fill="none" stroke="currentColor" stroke-width="1.75" stroke-linecap="round" stroke-linejoin="round">
    <polygon points="22 3 2 3 10 12.46 10 19 14 21 14 12.46 22 3"></polygon>
  </symbol>
  <symbol id="icon-check" viewBox="0 0 24 24" fill="none" stroke="currentColor" stroke-width="1.75" stroke-linecap="round" stroke-linejoin="round">
    <polyline points="20 6 9 17 4 12"></polyline>
  </symbol>
  <symbol id="icon-warning" viewBox="0 0 24 24" fill="none" stroke="currentColor" stroke-width="1.75" stroke-linecap="round" stroke-linejoin="round">
    <path d="M10.29 3.86L1.82 18a2 2 0 0 0 1.71 3h16.94a2 2 0 0 0 1.71-3L13.71 3.86a2 2 0 0 0-3.42 0z"></path>
    <line x1="12" y1="9" x2="12" y2="13"></line>
    <line x1="12" y1="17" x2="12.01" y2="17"></line>
  </symbol>
  <symbol id="icon-error" viewBox="0 0 24 24" fill="none" stroke="currentColor" stroke-width="1.75" stroke-linecap="round" stroke-linejoin="round">
    <circle cx="12" cy="12" r="10"></circle>
    <line x1="15" y1="9" x2="9" y2="15"></line>
    <line x1="9" y1="9" x2="15" y2="15"></line>
  </symbol>
  <symbol id="icon-info" viewBox="0 0 24 24" fill="none" stroke="currentColor" stroke-width="1.75" stroke-linecap="round" stroke-linejoin="round">
    <circle cx="12" cy="12" r="10"></circle>
    <line x1="12" y1="16" x2="12" y2="12"></line>
    <line x1="12" y1="8" x2="12.01" y2="8"></line>
  </symbol>
  <symbol id="icon-auto" viewBox="0 0 24 24" fill="none" stroke="currentColor" stroke-width="1.75" stroke-linecap="round" stroke-linejoin="round">
    <path d="M21 16V8a2 2 0 0 0-1-1.73l-7-4a2 2 0 0 0-2 0l-7 4A2 2 0 0 0 3 8v8a2 2 0 0 0 1 1.73l7 4a2 2 0 0 0 2 0l7-4A2 2 0 0 0 21 16z"></path>
    <polyline points="3.27 6.96 12 12.01 20.73 6.96"></polyline>
    <line x1="12" y1="22.08" x2="12" y2="12"></line>
  </symbol>
  <symbol id="icon-manual" viewBox="0 0 24 24" fill="none" stroke="currentColor" stroke-width="1.75" stroke-linecap="round" stroke-linejoin="round">
    <path d="M18 11.235V8.5a2.5 2.5 0 0 0-5 0v3.755"></path>
    <path d="M13 10.735V5.5a2.5 2.5 0 0 0-5 0v7"></path>
    <path d="M8 12.5V3.5a2.5 2.5 0 0 0-5 0v11.75A5.75 5.75 0 0 0 8.75 21h6.5A5.75 5.75 0 0 0 21 15.25v-3.5a2.5 2.5 0 0 0-5 0v.5"></path>
  </symbol>
  <symbol id="icon-chevron-down" viewBox="0 0 24 24" fill="none" stroke="currentColor" stroke-width="1.75" stroke-linecap="round" stroke-linejoin="round">
    <polyline points="6 9 12 15 18 9"></polyline>
  </symbol>
  <symbol id="icon-chevron-right" viewBox="0 0 24 24" fill="none" stroke="currentColor" stroke-width="1.75" stroke-linecap="round" stroke-linejoin="round">
    <polyline points="9 18 15 12 9 6"></polyline>
  </symbol>
  <symbol id="icon-external-link" viewBox="0 0 24 24" fill="none" stroke="currentColor" stroke-width="1.75" stroke-linecap="round" stroke-linejoin="round">
    <path d="M18 13v6a2 2 0 0 1-2 2H5a2 2 0 0 1-2-2V8a2 2 0 0 1 2-2h6"></path>
    <polyline points="15 3 21 3 21 9"></polyline>
    <line x1="10" y1="14" x2="21" y2="3"></line>
  </symbol>
  <symbol id="icon-undo" viewBox="0 0 24 24" fill="none" stroke="currentColor" stroke-width="1.75" stroke-linecap="round" stroke-linejoin="round">
    <polyline points="9 14 4 9 9 4"></polyline>
    <path d="M20 20v-7a4 4 0 0 0-4-4H4"></path>
  </symbol>
  <symbol id="icon-redo" viewBox="0 0 24 24" fill="none" stroke="currentColor" stroke-width="1.75" stroke-linecap="round" stroke-linejoin="round">
    <polyline points="15 14 20 9 15 4"></polyline>
    <path d="M4 20v-7a4 4 0 0 1 4-4h12"></path>
  </symbol>
  <symbol id="icon-rotate" viewBox="0 0 24 24" fill="none" stroke="currentColor" stroke-width="1.75" stroke-linecap="round" stroke-linejoin="round">
    <polyline points="23 4 23 10 17 10"></polyline>
    <path d="M20.49 15a9 9 0 1 1-2.12-9.36L23 10"></path>
  </symbol>
  <symbol id="icon-flip-horizontal" viewBox="0 0 24 24" fill="none" stroke="currentColor" stroke-width="1.75" stroke-linecap="round" stroke-linejoin="round">
    <polyline points="3 7 3 17 9 12 3 7"></polyline>
    <polyline points="21 7 21 17 15 12 21 7"></polyline>
    <line x1="12" y1="2" x2="12" y2="22"></line>
  </symbol>
  <symbol id="icon-flip-vertical" viewBox="0 0 24 24" fill="none" stroke="currentColor" stroke-width="1.75" stroke-linecap="round" stroke-linejoin="round">
    <polyline points="17 3 7 3 12 9 17 3"></polyline>
    <polyline points="17 21 7 21 12 15 17 21"></polyline>
    <line x1="2" y1="12" x2="22" y2="12"></line>
  </symbol>
  <symbol id="icon-zoom-in" viewBox="0 0 24 24" fill="none" stroke="currentColor" stroke-width="1.75" stroke-linecap="round" stroke-linejoin="round">
    <circle cx="11" cy="11" r="8"></circle>
    <line x1="21" y1="21" x2="16.65" y2="16.65"></line>
    <line x1="11" y1="8" x2="11" y2="14"></line>
    <line x1="8" y1="11" x2="14" y2="11"></line>
  </symbol>
  <symbol id="icon-zoom-out" viewBox="0 0 24 24" fill="none" stroke="currentColor" stroke-width="1.75" stroke-linecap="round" stroke-linejoin="round">
    <circle cx="11" cy="11" r="8"></circle>
    <line x1="21" y1="21" x2="16.65" y2="16.65"></line>
    <line x1="8" y1="11" x2="14" y2="11"></line>
  </symbol>
</svg>
